<svg width="20" height="22" viewBox="0 0 20 22" fill="none" xmlns="http://www.w3.org/2000/svg">
<g id="vector">
<path id="Vector" d="M17.0001 21.0599H2.98009C2.63009 21.0599 2.34009 20.7799 2.34009 20.4199V6.39995C2.34009 6.04995 2.62009 5.75995 2.98009 5.75995H17.0001C17.3501 5.75995 17.6401 6.03995 17.6401 6.39995V20.4199C17.6401 20.7699 17.3501 21.0599 17.0001 21.0599Z" fill="url(#paint0_linear_3197_603)"/>
<path id="Vector_2" d="M18.4599 14.72L5.58993 4.22003C5.12993 3.84003 5.38993 3.09003 5.98993 3.09003H18.8599C19.2099 3.09003 19.4999 3.37003 19.4999 3.73003V14.24C19.4999 14.77 18.8799 15.06 18.4599 14.72Z" fill="url(#paint1_linear_3197_603)"/>
<path id="Vector_3" d="M1.54 12.58L14.41 2.07C14.87 1.69 14.61 0.940002 14.01 0.940002H1.14C0.79 0.940002 0.5 1.22 0.5 1.58V12.09C0.5 12.62 1.12 12.92 1.54 12.58Z" fill="url(#paint2_linear_3197_603)"/>
</g>
<defs>
<linearGradient id="paint0_linear_3197_603" x1="2.34207" y1="13.4112" x2="17.6378" y2="13.4112" gradientUnits="userSpaceOnUse">
<stop stop-color="#FF9868"/>
<stop offset="1" stop-color="#FF5403"/>
</linearGradient>
<linearGradient id="paint1_linear_3197_603" x1="5.3527" y1="8.97921" x2="19.4999" y2="8.97921" gradientUnits="userSpaceOnUse">
<stop stop-color="#03FFE5"/>
<stop offset="1" stop-color="#14B348"/>
</linearGradient>
<linearGradient id="paint2_linear_3197_603" x1="0.5" y1="6.8319" x2="14.6472" y2="6.8319" gradientUnits="userSpaceOnUse">
<stop stop-color="#FCFF1C"/>
<stop offset="1" stop-color="#FF9D0A"/>
</linearGradient>
</defs>
</svg>
